<?xml version="1.0" encoding="utf-8"?>
<!-- Generator: Adobe Illustrator 24.0.1, SVG Export Plug-In . SVG Version: 6.00 Build 0)  -->
<svg version="1.1" id="Layer_1" xmlns="http://www.w3.org/2000/svg" xmlns:xlink="http://www.w3.org/1999/xlink" x="0px" y="0px"
	 viewBox="0 0 667.91 488.68" style="enable-background:new 0 0 667.91 488.68;" xml:space="preserve">
<style type="text/css">
	.st0{fill:#FFFFFF;}
	.st1{fill:none;stroke:#ED1C24;stroke-width:32;stroke-linecap:round;stroke-miterlimit:10;}
	.st2{fill:none;stroke:#FFFFFF;stroke-width:32;stroke-linecap:round;stroke-miterlimit:10;}
	.st3{fill:#D15262;}
	.st4{fill:url(#SVGID_1_);}
	.st5{fill:#D15161;}
	.st6{fill:url(#SVGID_2_);}
	.st7{fill:#ED1C24;}
	.st8{fill:url(#SVGID_3_);}
	.st9{fill:url(#SVGID_4_);}
	.st10{fill:none;}
	.st11{fill:url(#SVGID_5_);}
</style>
<rect x="-160.34" y="-75.06" width="948.03" height="700.21"/>
<rect x="2498.04" y="1072.96" class="st0" width="872.17" height="783.72"/>
<path class="st1" d="M3537.16,222.66l-85.4,76.57c-11.57,10.39-11.57,27.22,0,37.6l85.4,76.58"/>
<path class="st2" d="M3422.58,409.58l-43.14-71.77l-68.98-114.75c-0.67-1.12-2.3-1.09-2.93,0.05L3203.48,410.9
	c-0.63,1.14,0.21,2.53,1.51,2.51l57.38-1.01l56.93-1"/>
<path class="st3" d="M2225.38,882.42c-11.52,12.79-30.84,13.47-43.17,1.52l-165.24-160.1l46.48-43.1c0.24,1.15,0.81,2.22,1.72,3.08
	l158.75,153.81C2236.23,849.59,2236.9,869.63,2225.38,882.42z"/>
<linearGradient id="SVGID_1_" gradientUnits="userSpaceOnUse" x1="2040.9154" y1="702.439" x2="2058.125" y2="721.7106">
	<stop  offset="2.012780e-07" style="stop-color:#000000;stop-opacity:0.9"/>
	<stop  offset="0.5318" style="stop-color:#CC5562;stop-opacity:0.997"/>
	<stop  offset="0.5548" style="stop-color:#CD5562;stop-opacity:0.9972"/>
	<stop  offset="1" style="stop-color:#D15262"/>
</linearGradient>
<polygon class="st4" points="2018.66,725.49 2065.17,683.82 2079.69,697.89 2035.65,741.93 "/>
<path class="st5" d="M2221.73,544.6l-155.71,137.57c-0.51,0.43-0.9,0.94-1.2,1.51l-46.66,41.34l-0.3-0.28l-0.3-0.28
	c-22.72-21.34-22.16-57.71,1.18-78.33l164.6-145.41c5.52-4.89,12.37-7.28,19.18-7.28c8.07,0,16.11,3.37,21.86,9.94
	C2234.98,515.48,2233.8,533.95,2221.73,544.6z"/>
<linearGradient id="SVGID_2_" gradientUnits="userSpaceOnUse" x1="2048.6506" y1="704.6263" x2="1637.6448" y2="702.7013">
	<stop  offset="0" style="stop-color:#2E3192;stop-opacity:0.9"/>
	<stop  offset="0.5854" style="stop-color:#944177;stop-opacity:0.9585"/>
	<stop  offset="1" style="stop-color:#D15262"/>
</linearGradient>
<path class="st6" d="M2044.09,852.87l-171.15-323.71c-2.55-7.73-7.97-14.52-15.74-18.63h0c-15.95-8.43-35.72-2.34-44.15,13.61
	l-171.57,324.51c-1.73,3.27-2.83,6.69-3.38,10.15c-0.79,2.8-1.23,5.74-1.23,8.79v0c0,17.77,14.4,32.17,32.17,32.17h187.57
	c17.77,0,32.17-14.4,32.17-32.17v0c0-17.77-14.4-32.17-32.17-32.17h-134.23l119.29-225.62l144.66,273.61
	c8.43,15.95,28.2,22.04,44.15,13.61l0,0C2046.43,888.59,2052.52,868.82,2044.09,852.87z"/>
<text transform="matrix(1.0527 0 0 1 2750.4346 1191.3551)" style="fill:#602671; font-family:'ProductSans-Bold'; font-size:134.8666px;">DIGITALS</text>
<path class="st7" d="M613.38,419.81c-11.52,12.79-30.84,13.47-43.17,1.52l-165.24-160.1l46.48-43.1c0.24,1.15,0.81,2.22,1.72,3.08
	l158.75,153.81C624.23,386.97,624.9,407.01,613.38,419.81z"/>
<linearGradient id="SVGID_3_" gradientUnits="userSpaceOnUse" x1="428.9099" y1="239.8264" x2="446.1196" y2="259.0981">
	<stop  offset="2.012780e-07" style="stop-color:#000000;stop-opacity:0.9"/>
	<stop  offset="0.5318" style="stop-color:#ED1C24"/>
	<stop  offset="1" style="stop-color:#ED1C24"/>
</linearGradient>
<polygon class="st8" points="406.66,262.87 453.16,221.21 467.68,235.28 423.64,279.32 "/>
<path class="st7" d="M609.72,81.99L454.01,219.56c-0.51,0.43-0.9,0.94-1.2,1.51l-46.66,41.34l-0.3-0.28l-0.3-0.28
	c-22.72-21.34-22.16-57.71,1.18-78.33l164.6-145.41c5.52-4.89,12.37-7.28,19.18-7.28c8.07,0,16.11,3.37,21.86,9.94
	C622.97,52.86,621.79,71.34,609.72,81.99z"/>
<path class="st0" d="M432.08,390.26L260.94,66.55c-2.55-7.73-7.97-14.52-15.74-18.63h0c-15.95-8.43-35.72-2.34-44.15,13.61
	L29.48,386.04c-1.73,3.27-2.83,6.69-3.38,10.15c-0.79,2.8-1.23,5.74-1.23,8.79v0c0,17.77,14.4,32.17,32.17,32.17h187.57
	c17.77,0,32.17-14.4,32.17-32.17v0c0-17.77-14.4-32.17-32.17-32.17H110.38l119.29-225.62L374.32,420.8
	c8.43,15.95,28.2,22.04,44.15,13.61l0,0C434.42,425.98,440.52,406.21,432.08,390.26z"/>
<linearGradient id="SVGID_4_" gradientUnits="userSpaceOnUse" x1="279.1723" y1="144.3422" x2="239.9808" y2="121.1082">
	<stop  offset="0" style="stop-color:#FFFFFF"/>
	<stop  offset="0.1951" style="stop-color:#FCFCFC"/>
	<stop  offset="0.329" style="stop-color:#F3F3F3"/>
	<stop  offset="0.4447" style="stop-color:#E4E4E4"/>
	<stop  offset="0.5499" style="stop-color:#CECECE"/>
	<stop  offset="0.6482" style="stop-color:#B2B2B2"/>
	<stop  offset="0.7412" style="stop-color:#8F8F8F"/>
	<stop  offset="0.8302" style="stop-color:#666666"/>
	<stop  offset="0.9151" style="stop-color:#373737"/>
	<stop  offset="0.9955" style="stop-color:#030303"/>
	<stop  offset="1" style="stop-color:#000000"/>
</linearGradient>
<polygon class="st9" points="229.67,147.19 267.37,78.72 287.45,116.69 250.02,185.69 "/>
<line class="st10" x1="139.45" y1="317.82" x2="139.45" y2="317.82"/>
<linearGradient id="SVGID_5_" gradientUnits="userSpaceOnUse" x1="144.1813" y1="419.9938" x2="91.2451" y2="391.9087">
	<stop  offset="0" style="stop-color:#FFFFFF"/>
	<stop  offset="0.1882" style="stop-color:#FCFCFC;stop-opacity:0.9812"/>
	<stop  offset="0.3215" style="stop-color:#F3F3F3;stop-opacity:0.9678"/>
	<stop  offset="0.4379" style="stop-color:#E3E3E3;stop-opacity:0.9562"/>
	<stop  offset="0.5446" style="stop-color:#CDCDCD;stop-opacity:0.9455"/>
	<stop  offset="0.6447" style="stop-color:#B1B1B1;stop-opacity:0.9355"/>
	<stop  offset="0.7398" style="stop-color:#8E8E8E;stop-opacity:0.926"/>
	<stop  offset="0.8312" style="stop-color:#646464;stop-opacity:0.9169"/>
	<stop  offset="0.917" style="stop-color:#353535;stop-opacity:0.9083"/>
	<stop  offset="1" style="stop-color:#000000;stop-opacity:0.9"/>
</linearGradient>
<polygon class="st11" points="110.38,372.81 155.8,372.81 121.42,437.15 75.98,437.15 "/>
</svg>
